<svg width="28" height="23" viewBox="0 0 28 23" fill="none" xmlns="http://www.w3.org/2000/svg">
<path fill-rule="evenodd" clip-rule="evenodd" d="M0.413086 11.3839C0.413086 10.9695 0.594168 10.5721 0.916497 10.2791C1.23882 9.98605 1.676 9.82143 2.13184 9.82143H22.0453L14.665 3.11518C14.3422 2.82179 14.1609 2.42386 14.1609 2.00893C14.1609 1.59401 14.3422 1.19608 14.665 0.902682C14.9877 0.609286 15.4254 0.444458 15.8818 0.444458C16.3383 0.444458 16.776 0.609286 17.0987 0.902682L27.4112 10.2777C27.5713 10.4228 27.6983 10.5952 27.7849 10.7851C27.8716 10.9749 27.9162 11.1784 27.9162 11.3839C27.9162 11.5895 27.8716 11.793 27.7849 11.9828C27.6983 12.1726 27.5713 12.345 27.4112 12.4902L17.0987 21.8652C16.776 22.1586 16.3383 22.3234 15.8818 22.3234C15.4254 22.3234 14.9877 22.1586 14.665 21.8652C14.3422 21.5718 14.1609 21.1739 14.1609 20.7589C14.1609 20.344 14.3422 19.9461 14.665 19.6527L22.0453 12.9464H2.13184C1.676 12.9464 1.23882 12.7818 0.916497 12.4888C0.594168 12.1958 0.413086 11.7983 0.413086 11.3839Z" fill="white"/>
</svg>
