<svg width="90" height="90" viewBox="0 0 90 90" fill="none" xmlns="http://www.w3.org/2000/svg">
<rect width="90" height="90" rx="45" fill="#7253A4"/>
<g clip-path="url(#clip0_13_121)">
<path d="M45.0625 21C38.7046 21.0767 32.6286 23.6365 28.1326 28.1326C23.6365 32.6286 21.0767 38.7046 21 45.0625C21.0767 51.4204 23.6365 57.4964 28.1326 61.9924C32.6286 66.4885 38.7046 69.0483 45.0625 69.125C51.4204 69.0483 57.4964 66.4885 61.9924 61.9924C66.4885 57.4964 69.0483 51.4204 69.125 45.0625C69.0483 38.7046 66.4885 32.6286 61.9924 28.1326C57.4964 23.6365 51.4204 21.0767 45.0625 21V21ZM58.8125 46.7812H46.7812V58.8125H43.3438V46.7812H31.3125V43.3438H43.3438V31.3125H46.7812V43.3438H58.8125V46.7812Z" fill="white"/>
</g>
<defs>
<clipPath id="clip0_13_121">
<rect width="48" height="48" fill="white" transform="translate(21 21)"/>
</clipPath>
</defs>
</svg>
