<svg width="90" height="90" viewBox="0 0 90 90" fill="none" xmlns="http://www.w3.org/2000/svg">
<rect width="90" height="90" rx="45" fill="#7187FF"/>
<g clip-path="url(#clip0_13_113)">
<path d="M62.3271 29.3584C59.1396 27.9209 55.7229 26.8584 52.15 26.2542C52.1182 26.2481 52.0853 26.252 52.0558 26.2655C52.0263 26.2789 52.0017 26.3012 51.9854 26.3292C51.5479 27.0979 51.0604 28.1 50.7188 28.8917C46.9294 28.3255 43.0769 28.3255 39.2875 28.8917C38.907 28.0143 38.4778 27.1588 38.0021 26.3292C37.986 26.3008 37.9616 26.278 37.9322 26.2639C37.9028 26.2498 37.8698 26.2449 37.8375 26.25C34.2667 26.8542 30.85 27.9167 27.6604 29.3563C27.633 29.3678 27.6097 29.3874 27.5938 29.4125C21.1104 38.9438 19.3334 48.2396 20.2063 57.4188C20.2087 57.4413 20.2157 57.463 20.2268 57.4827C20.2379 57.5024 20.2529 57.5196 20.2709 57.5334C24.055 60.2884 28.2757 62.3871 32.7563 63.7417C32.7875 63.7513 32.8209 63.7513 32.8521 63.7416C32.8834 63.732 32.9109 63.7131 32.9313 63.6875C33.8938 62.3959 34.7521 61.0313 35.4854 59.5979C35.5292 59.5146 35.4875 59.4146 35.4 59.3813C34.0542 58.8745 32.7502 58.2629 31.5 57.5521C31.4776 57.5393 31.4586 57.5211 31.4449 57.4991C31.4312 57.4772 31.4232 57.4522 31.4216 57.4264C31.4199 57.4006 31.4247 57.3748 31.4355 57.3512C31.4463 57.3277 31.4627 57.3073 31.4834 57.2917C31.7459 57.0979 32.0084 56.8959 32.2584 56.6938C32.2809 56.6756 32.308 56.664 32.3367 56.6604C32.3653 56.6567 32.3945 56.661 32.4209 56.6729C40.6021 60.3479 49.4625 60.3479 57.5479 56.6729C57.5744 56.6603 57.6038 56.6554 57.6329 56.6587C57.662 56.662 57.6896 56.6735 57.7125 56.6917C57.9625 56.8959 58.2229 57.0979 58.4875 57.2917C58.5084 57.3069 58.5251 57.3271 58.5362 57.3504C58.5474 57.3738 58.5525 57.3995 58.5513 57.4253C58.5501 57.4511 58.5424 57.4762 58.5291 57.4983C58.5158 57.5204 58.4972 57.5389 58.475 57.5521C57.2292 58.2688 55.9334 58.875 54.5729 59.3792C54.552 59.3868 54.533 59.3987 54.5171 59.4143C54.5012 59.4298 54.4888 59.4485 54.4807 59.4692C54.4726 59.4899 54.4691 59.5121 54.4702 59.5343C54.4714 59.5565 54.4773 59.5782 54.4875 59.5979C55.2375 61.0292 56.0959 62.3917 57.0396 63.6854C57.0592 63.712 57.0866 63.7318 57.1179 63.7423C57.1492 63.7527 57.183 63.7532 57.2146 63.7438C61.7028 62.393 65.9304 60.2933 69.7188 57.5334C69.7373 57.5204 69.7528 57.5037 69.7643 57.4843C69.7758 57.4649 69.783 57.4433 69.7854 57.4209C70.8271 46.8084 68.0396 37.5875 62.3917 29.4167C62.3778 29.3901 62.3549 29.3694 62.3271 29.3584ZM36.7084 51.8292C34.2459 51.8292 32.2146 49.6021 32.2146 46.8709C32.2146 44.1375 34.2063 41.9125 36.7084 41.9125C39.2292 41.9125 41.2417 44.1563 41.2021 46.8709C41.2021 49.6042 39.2104 51.8292 36.7084 51.8292V51.8292ZM53.3229 51.8292C50.8584 51.8292 48.8292 49.6021 48.8292 46.8709C48.8292 44.1375 50.8188 41.9125 53.3229 41.9125C55.8438 41.9125 57.8563 44.1563 57.8167 46.8709C57.8167 49.6042 55.8459 51.8292 53.3229 51.8292V51.8292Z" fill="white"/>
</g>
<defs>
<clipPath id="clip0_13_113">
<rect width="50" height="50" fill="white" transform="translate(20 20)"/>
</clipPath>
</defs>
</svg>
