<svg width="368" height="68" viewBox="0 0 368 68" fill="none" xmlns="http://www.w3.org/2000/svg">
<g clip-path="url(#clip0_13_77)">
<path d="M23.3128 66.9495H9.44656V33.9508H0V23.2066H9.44656V15.5612C9.44656 6.51751 13.616 0 27.4528 0C30.3968 0 34.971 0.565666 34.971 0.565666V10.5405H30.1466C25.2338 10.5405 23.3128 11.9704 23.3128 15.9161V23.2066H34.787L33.764 33.9508H23.3128V66.9495ZM55.1301 22.3282C54.9277 22.3282 54.7216 22.3282 54.5155 22.3282C41.6576 22.3282 35.7733 31.5616 35.7733 44.6705C35.7733 61.1839 43.4056 67.7927 54.6149 67.7927C61.0291 67.7927 65.2427 65.2138 67.804 60.4144V66.9495H80.9931V23.2101H67.804V29.9384C65.7138 25.6098 61.3824 22.3985 55.1301 22.3458V22.3282ZM58.4826 32.6684C63.8848 32.6684 67.1269 36.2627 67.1269 42.3797V48.6302C67.1269 52.7515 64.4515 57.5755 58.4715 57.5755C49.2715 57.5755 49.5291 48.0891 49.5291 44.948C49.5291 34.3338 54.4235 32.6684 58.4715 32.6684H58.4826ZM86.3181 45.071C86.3181 39.7551 86.0531 22.3598 109.789 22.3598C119.32 22.3598 123.298 25.2514 123.298 25.2514L120.1 34.7203C117.256 33.3693 114.126 32.6555 110.948 32.6333C104.324 32.6333 100.085 36.3013 100.085 42.7591V47.3899C100.085 53.5982 104.17 57.7406 110.956 57.7406C115.673 57.7406 120.02 55.6325 120.02 55.6325L123.21 64.9046C123.21 64.9046 119.571 67.8173 109.848 67.8173C87.2491 67.8173 86.296 52.2104 86.296 45.0745L86.3181 45.071ZM200.63 22.3423C213.488 22.3423 219.464 31.5757 219.464 44.6845C219.464 61.1979 211.832 67.8068 200.623 67.8068C194.208 67.8068 189.468 65.2279 186.907 60.4285V66.9495H173.884V1.3316L187.709 0.193237V29.3552C189.708 24.2536 196.265 22.3704 200.63 22.3704V22.3423ZM196.755 32.6684C191.353 32.6684 187.709 36.2627 187.709 42.3797V48.6302C187.709 52.7515 190.23 57.5755 196.766 57.5755C205.966 57.5755 205.708 48.0891 205.708 44.948C205.708 34.3338 200.814 32.6684 196.766 32.6684H196.755ZM147.288 22.395C132.704 22.395 125.006 29.9876 125.006 43.4759V45.981C125.006 63.4922 135.818 68 148.709 68C161.221 68 166.91 64.6552 166.91 64.6552L164.334 55.745C164.334 55.745 157.662 58.4539 150.38 58.4539C142.828 58.4539 139.579 56.6163 138.747 49.6702H168.025V42.5413C168.025 27.9076 159.384 22.395 147.299 22.395H147.288ZM147.656 31.3192C152.705 31.3192 155.973 34.2741 155.796 41.1289H138.762C139.056 33.9122 142.582 31.3192 147.642 31.3192H147.656ZM247.035 22.3282C232.057 22.3282 224.175 30.3846 224.175 44.8145C224.175 64.6271 237.765 67.8173 247.06 67.8173C260.676 67.8173 269.722 60.822 269.722 44.9972C269.722 28.5225 259.543 22.3177 247.035 22.3177V22.3282ZM246.847 32.7141C253.431 32.7141 256.047 37.4186 256.047 42.7767V47.3794C256.047 53.8688 252.393 57.6212 246.825 57.6212C241.618 57.6212 237.956 54.1077 237.956 47.3794V42.7767C237.952 35.6057 242.31 32.7211 246.847 32.7211V32.7141ZM297.263 22.3282C282.285 22.3282 274.403 30.3846 274.403 44.8145C274.403 64.6271 287.993 67.8173 297.289 67.8173C310.905 67.8173 319.947 60.822 319.947 44.9972C319.947 28.5225 309.768 22.3177 297.263 22.3177V22.3282ZM297.075 32.7141C303.659 32.7141 306.275 37.4186 306.275 42.7767V47.3794C306.275 53.8688 302.625 57.6212 297.075 57.6212C291.868 57.6212 288.207 54.1077 288.207 47.3794V42.7767C288.184 35.6057 292.56 32.7211 297.079 32.7211L297.075 32.7141ZM325.176 66.9495V1.3316L339.046 0.193237V44.1645L352.802 23.2066H367.448L353.096 44.9129L368 66.9495H353.313L339.046 45.5524V66.9495H325.176Z" fill="#ABABAB"/>
</g>
<defs>
<clipPath id="clip0_13_77">
<rect width="368" height="68" fill="white"/>
</clipPath>
</defs>
</svg>
