<svg width="358" height="92" viewBox="0 0 358 92" fill="none" xmlns="http://www.w3.org/2000/svg">
<path d="M18.4251 0.322583C11.0978 3.10109 3.04259 10.9507 0.4985 20.8037C-2.7234 33.2879 10.6844 38.567 11.7841 36.836C13.0785 34.8021 9.38161 34.1143 8.62063 27.637C7.63713 19.271 11.9305 9.92284 17.3338 5.82116C18.3382 5.05911 18.2904 6.11977 18.2904 8.08165C18.2904 11.5899 18.0765 43.0841 18.0765 49.657C18.0765 58.5509 17.6709 61.3594 16.9427 64.1346C16.2047 66.947 15.0184 68.8473 15.9173 69.5793C16.9217 70.3981 21.2098 68.4505 23.6923 65.3117C26.6692 61.5473 27.7112 57.0264 27.8983 52.1168C28.1243 46.1985 28.1146 36.8073 28.1243 31.4506C28.1333 26.5378 28.2156 12.1518 28.0292 3.50353C27.9835 1.38228 21.4895 -0.843225 18.4248 0.319996L18.4251 0.322583ZM278.619 41.9454C278.383 46.5692 277.253 50.1832 275.851 52.7324C273.136 57.6675 267.503 59.1999 265.111 52.1055C263.808 48.2384 263.747 41.7798 264.684 36.3833C265.638 30.8858 268.301 26.7339 272.712 27.1084C277.062 27.4785 279.098 32.5564 278.619 41.9454ZM205.285 70.6322C205.226 78.3148 203.892 85.0509 201.029 87.0073C196.97 89.7814 191.514 87.7005 192.643 82.0944C193.643 77.1336 198.371 72.0673 205.297 65.8771C205.297 65.8771 205.311 67.2887 205.285 70.6322ZM204.177 41.9007C203.928 46.112 202.723 50.3426 201.408 52.733C198.694 57.6681 193.021 59.2109 190.669 52.1061C189.062 47.2519 189.447 40.9692 190.242 37.0105C191.274 31.8744 193.776 27.1095 198.27 27.1095C202.638 27.1095 204.793 31.451 204.177 41.9007ZM161.695 41.8363C161.428 46.2964 160.468 50.0249 158.926 52.733C156.138 57.6341 150.62 59.1885 148.187 52.1061C146.433 46.9992 147.03 40.0358 147.76 36.2741C148.843 30.692 151.554 26.7344 155.788 27.1095C160.136 27.4943 162.25 32.5564 161.695 41.8363ZM356.381 47.046C355.318 47.046 354.832 48.0385 354.431 49.7092C353.039 55.5184 351.576 56.8301 349.69 56.8301C347.582 56.8301 345.688 53.9537 345.201 48.1955C344.818 43.6678 344.88 35.332 345.369 27.0402C345.469 25.3365 344.95 23.6509 339.906 21.9909C337.736 21.2769 334.581 20.2255 333.01 23.6607C328.571 33.3658 326.834 41.0708 326.426 44.2008C326.405 44.3628 326.185 44.3959 326.147 44.0174C325.887 41.5105 325.305 36.9549 325.232 27.3836C325.218 25.5161 324.781 23.9265 322.506 22.6251C321.03 21.7807 316.547 20.2872 314.932 22.064C313.534 23.5171 311.914 27.4278 310.231 32.0633C308.863 35.8309 307.911 38.3796 307.911 38.3796C307.911 38.3796 307.929 28.2138 307.945 24.3578C307.952 22.903 306.851 22.4183 306.519 22.3304C305.024 21.9373 302.078 21.2807 300.828 21.2807C299.285 21.2807 298.908 22.0618 298.908 23.2C298.908 23.349 298.664 36.5843 298.664 45.839C298.664 46.241 298.664 46.6796 298.669 47.1455C297.815 51.399 295.048 57.1732 292.039 57.1732C289.026 57.1732 287.605 54.7592 287.605 43.7261C287.605 37.2897 287.818 34.491 287.923 29.8359C287.984 27.1545 288.101 25.0954 288.095 24.6282C288.072 23.1953 285.337 22.4731 284.065 22.2062C282.786 21.937 281.675 21.8328 280.807 21.8775C279.579 21.9403 278.71 22.6702 278.71 23.674C278.71 24.2122 278.717 25.2357 278.717 25.2357C277.135 22.984 274.591 21.4168 272.898 20.9626C268.339 19.7361 263.582 20.8229 259.994 25.3717C257.142 28.9859 255.423 33.0794 254.746 38.9607C254.251 43.2603 254.413 47.6204 255.292 51.3077C254.229 55.4685 252.257 57.1732 250.098 57.1732C246.962 57.1732 244.69 52.5373 244.953 44.5198C245.128 39.2464 246.292 35.5457 247.566 30.1917C248.109 27.9094 247.667 26.7145 246.561 25.5693C245.546 24.519 243.384 23.9824 240.276 24.6424C238.062 25.1129 234.897 25.6189 232.001 26.0076C232.001 26.0076 232.176 25.376 232.319 24.2625C233.072 18.4227 226.068 18.8965 223.833 20.7618C222.499 21.8753 221.59 23.1887 221.246 25.5502C220.699 29.2976 224.073 31.0652 224.073 31.0652C222.966 35.6554 220.253 41.6518 217.451 45.9871C215.951 48.3099 214.803 50.0311 213.321 51.8607C213.316 51.1794 213.312 50.4982 213.309 49.8201C213.275 40.1696 213.417 32.5743 213.48 29.8368C213.54 27.1555 213.659 25.151 213.653 24.6837C213.636 23.6356 212.96 23.2399 211.555 22.7387C210.312 22.2955 208.843 21.9887 207.319 21.8817C205.396 21.7458 204.237 22.67 204.267 23.7628C204.273 23.9692 204.273 25.2362 204.273 25.2362C202.691 22.9844 200.147 21.4172 198.455 20.963C193.896 19.737 189.138 20.8238 185.55 25.3721C182.699 28.9863 180.831 34.058 180.302 38.9163C179.809 43.4442 179.9 47.2921 180.572 50.5335C179.847 53.7794 177.763 57.1736 175.406 57.1736C172.393 57.1736 170.679 54.7595 170.679 43.7265C170.679 37.2901 170.892 34.4914 170.997 29.8368C171.058 27.1555 171.176 25.0959 171.169 24.6291C171.147 23.1962 168.412 22.474 167.139 22.2065C165.807 21.9276 164.658 21.825 163.775 21.8839C162.61 21.9625 161.791 22.9074 161.791 23.6122V25.2362C160.209 22.9844 157.665 21.4172 155.973 20.963C151.414 19.737 146.683 20.8413 143.068 25.3721C140.711 28.3263 138.802 31.6016 137.82 38.8519C137.536 40.9471 137.411 42.9091 137.427 44.743C136.487 49.9507 132.335 55.953 128.939 55.953C126.952 55.953 125.059 52.4611 125.059 45.0192C125.059 35.1061 125.737 20.992 125.851 19.6317C125.851 19.6317 130.142 19.5656 130.973 19.5569C133.113 19.5356 135.052 19.5814 137.903 19.4493C139.333 19.3833 140.71 14.7346 139.234 14.1593C138.565 13.8989 133.838 13.6707 131.964 13.6347C130.389 13.6023 126.002 13.3083 126.002 13.3083C126.002 13.3083 126.395 3.93995 126.487 2.95031C126.565 2.12549 125.387 1.70082 124.711 1.44313C123.068 0.813751 121.599 0.512419 119.857 0.187084C117.45 -0.262694 116.358 0.177251 116.145 2.01739C115.824 4.81011 115.657 12.99 115.657 12.99C113.891 12.99 107.858 12.6772 106.092 12.6772C104.45 12.6772 102.678 19.0722 104.948 19.1507C107.559 19.2425 112.109 19.3216 115.125 19.404C115.125 19.404 114.991 33.7507 114.991 38.1799C114.991 38.6511 114.995 39.1049 114.996 39.5453C113.336 47.384 107.489 51.6183 107.489 51.6183C108.745 46.4325 106.179 42.5383 101.559 39.2417C99.8566 38.027 96.4961 35.7272 92.736 33.2071C92.736 33.2071 94.9137 31.2627 96.845 27.351C98.2134 24.5801 98.2725 21.4091 94.9137 20.7099C89.364 19.5537 84.7881 23.246 83.4232 27.1878C82.3657 30.2414 82.9297 32.5073 85.0014 34.8611C85.1526 35.0331 85.3165 35.2088 85.4858 35.3857C84.2331 37.5731 82.5121 40.5181 81.0545 42.8019C77.0088 49.1428 73.9526 54.1583 71.6429 54.1583C69.7966 54.1583 69.8213 49.0662 69.8213 44.2987C69.8213 40.1887 70.1563 34.0095 70.4239 27.6119C70.5124 25.4961 69.3446 24.2908 67.3869 23.1991C66.1974 22.5358 63.6587 21.2317 62.1885 21.2317C59.9878 21.2317 53.6385 21.503 47.6393 37.2236C46.8833 39.2051 45.398 42.8156 45.398 42.8156L45.5258 23.9109C45.5258 23.4676 45.2652 23.0391 44.6686 22.746C43.6576 22.2487 40.9575 21.2317 38.5566 21.2317C37.4127 21.2317 36.8419 21.7137 36.8419 22.6745L36.6324 52.251C36.6324 54.4983 36.6971 57.1199 36.9424 58.2665C37.1867 59.4146 37.5826 60.3485 38.0729 60.9042C38.5625 61.4588 39.1288 61.8819 40.0626 62.0565C40.9316 62.2186 45.6903 62.7721 45.9377 61.1247C46.234 59.1504 46.2454 57.0149 48.7442 49.0505C52.6343 36.651 57.7063 30.6011 60.0906 28.4525C60.5075 28.077 60.9836 28.0546 60.9606 28.6692C60.8589 31.3877 60.5009 38.1806 60.2599 43.9515C59.614 59.3954 62.7154 62.2579 67.1474 62.2579C70.538 62.2579 75.3177 59.2059 80.4414 51.4802C83.6356 46.6657 86.7371 41.9449 88.9654 38.5425C90.5183 39.8447 92.2609 41.2463 94.0023 42.7435C98.0492 46.2231 99.3779 49.5293 98.4963 52.6659C97.8221 55.0637 95.2828 57.5348 90.7635 55.133C89.4462 54.4323 88.884 53.8909 87.5596 53.1009C86.848 52.6765 85.7615 52.5497 85.1101 52.9942C83.4181 54.15 82.4504 55.62 81.8978 57.4399C81.3603 59.2108 83.3181 60.147 85.3475 60.9658C87.095 61.6705 90.8508 62.3091 93.2461 62.3818C102.579 62.6645 110.055 58.2997 115.259 47.0406C116.191 56.7642 120.156 62.2666 127.045 62.2666C131.65 62.2666 136.268 56.8738 138.287 51.5686C138.866 53.7312 139.725 55.6117 140.833 57.202C146.141 64.8208 156.438 63.181 161.611 56.7114C163.21 54.7123 163.453 53.994 163.453 53.994C164.208 60.1028 169.638 62.2372 172.747 62.2372C176.23 62.2372 179.825 60.7459 182.345 55.6065C182.641 56.1642 182.963 56.6969 183.315 57.2018C188.623 64.8206 198.92 63.1808 204.093 56.7112C204.337 56.4077 204.548 56.1325 204.733 55.8854L204.885 59.8979C204.885 59.8979 201.934 62.3501 200.123 63.8545C192.151 70.4803 186.089 75.5072 185.643 81.3612C185.071 88.8255 191.753 91.5996 196.809 91.9631C202.178 92.3491 206.775 89.6624 209.602 85.9023C212.087 82.5927 213.714 75.4696 213.595 68.4343C213.547 65.6171 213.469 62.035 213.407 58.1954C216.209 55.2477 219.366 51.5221 222.273 47.1611C225.441 42.4086 228.836 36.0264 230.574 31.0595C230.574 31.0595 233.524 31.0824 236.672 30.8957C237.678 30.8362 237.968 31.0223 237.782 31.6911C237.557 32.4989 233.805 45.6097 237.229 54.3437C239.573 60.3227 244.857 62.2463 247.99 62.2463C251.657 62.2463 255.165 59.7374 257.045 56.0119C257.272 56.4273 257.509 56.8291 257.767 57.2002C263.075 64.819 273.336 63.1693 278.545 56.7096C279.721 55.2522 280.388 53.9922 280.388 53.9922C281.506 60.3145 286.933 62.2676 290.042 62.2676C293.28 62.2676 296.353 61.065 298.847 55.7204C298.951 58.0736 299.115 59.9978 299.374 60.6045C299.532 60.9755 300.452 61.4412 301.121 61.6661C304.083 62.6613 307.105 62.1907 308.223 61.986C308.997 61.844 309.601 61.2813 309.683 59.8281C309.9 56.0125 309.767 49.6017 311.044 44.8373C313.187 36.8413 315.187 33.7397 316.135 32.2042C316.666 31.3439 317.265 31.2019 317.287 32.1125C317.331 33.9548 317.432 39.3649 318.263 46.6338C318.872 51.9797 319.687 55.1396 320.313 56.1396C322.1 58.9995 324.306 59.1349 326.103 59.1349C327.246 59.1349 329.637 58.8487 329.423 57.0288C329.319 56.1418 329.501 50.6595 331.615 42.7821C332.994 37.6378 335.295 32.9896 336.125 31.2903C336.431 30.6637 336.573 31.1577 336.568 31.2539C336.394 34.7966 336.001 46.3844 337.594 52.722C339.754 61.3075 346.002 62.2682 348.179 62.2682C352.826 62.2682 356.627 59.0655 357.908 50.6384C358.216 48.6104 357.76 47.0445 356.391 47.0445" fill="#ABABAB"/>
</svg>
