<svg width="36" height="37" viewBox="0 0 36 37" fill="none" xmlns="http://www.w3.org/2000/svg">
<rect width="36" height="37" fill="#FFEDE9"/>
<path fill-rule="evenodd" clip-rule="evenodd" d="M13.465 8.066C14.638 8.012 15.012 8 18 8C20.988 8 21.362 8.013 22.534 8.066C23.706 8.119 24.506 8.306 25.206 8.577C25.939 8.854 26.604 9.287 27.154 9.847C27.714 10.396 28.146 11.06 28.422 11.794C28.694 12.494 28.88 13.294 28.934 14.464C28.988 15.639 29 16.013 29 19C29 21.988 28.987 22.362 28.934 23.535C28.881 24.705 28.694 25.505 28.422 26.205C28.146 26.9391 27.7133 27.6042 27.154 28.154C26.604 28.714 25.939 29.146 25.206 29.422C24.506 29.694 23.706 29.88 22.536 29.934C21.362 29.988 20.988 30 18 30C15.012 30 14.638 29.987 13.465 29.934C12.295 29.881 11.495 29.694 10.795 29.422C10.0609 29.146 9.39582 28.7133 8.846 28.154C8.28638 27.6047 7.85331 26.9399 7.577 26.206C7.306 25.506 7.12 24.706 7.066 23.536C7.012 22.361 7 21.987 7 19C7 16.012 7.013 15.638 7.066 14.466C7.119 13.294 7.306 12.494 7.577 11.794C7.85372 11.0601 8.28712 10.3953 8.847 9.846C9.39604 9.2865 10.0605 8.85344 10.794 8.577C11.494 8.306 12.294 8.12 13.464 8.066H13.465ZM22.445 10.046C21.285 9.993 20.937 9.982 18 9.982C15.063 9.982 14.715 9.993 13.555 10.046C12.482 10.095 11.9 10.274 11.512 10.425C10.999 10.625 10.632 10.862 10.247 11.247C9.88205 11.6021 9.60118 12.0343 9.425 12.512C9.274 12.9 9.095 13.482 9.046 14.555C8.993 15.715 8.982 16.063 8.982 19C8.982 21.937 8.993 22.285 9.046 23.445C9.095 24.518 9.274 25.1 9.425 25.488C9.601 25.965 9.882 26.398 10.247 26.753C10.602 27.118 11.035 27.399 11.512 27.575C11.9 27.726 12.482 27.905 13.555 27.954C14.715 28.007 15.062 28.018 18 28.018C20.938 28.018 21.285 28.007 22.445 27.954C23.518 27.905 24.1 27.726 24.488 27.575C25.001 27.375 25.368 27.138 25.753 26.753C26.118 26.398 26.399 25.965 26.575 25.488C26.726 25.1 26.905 24.518 26.954 23.445C27.007 22.285 27.018 21.937 27.018 19C27.018 16.063 27.007 15.715 26.954 14.555C26.905 13.482 26.726 12.9 26.575 12.512C26.375 11.999 26.138 11.632 25.753 11.247C25.3979 10.8821 24.9657 10.6012 24.488 10.425C24.1 10.274 23.518 10.095 22.445 10.046V10.046ZM16.595 22.391C17.3797 22.7176 18.2534 22.7617 19.0669 22.5157C19.8805 22.2697 20.5834 21.7489 21.0556 21.0422C21.5278 20.3356 21.7401 19.4869 21.656 18.6411C21.572 17.7953 21.197 17.005 20.595 16.405C20.2112 16.0215 19.7472 15.7278 19.2363 15.5451C18.7255 15.3625 18.1804 15.2954 17.6405 15.3486C17.1006 15.4019 16.5792 15.5742 16.1138 15.8531C15.6485 16.1321 15.2507 16.5107 14.9493 16.9619C14.6479 17.413 14.4502 17.9253 14.3705 18.462C14.2908 18.9986 14.3312 19.5463 14.4885 20.0655C14.6459 20.5847 14.9165 21.0626 15.2807 21.4647C15.645 21.8668 16.0938 22.1832 16.595 22.391ZM14.002 15.002C14.527 14.477 15.1503 14.0605 15.8363 13.7764C16.5223 13.4922 17.2575 13.346 18 13.346C18.7425 13.346 19.4777 13.4922 20.1637 13.7764C20.8497 14.0605 21.473 14.477 21.998 15.002C22.523 15.527 22.9395 16.1503 23.2236 16.8363C23.5078 17.5223 23.654 18.2575 23.654 19C23.654 19.7425 23.5078 20.4777 23.2236 21.1637C22.9395 21.8497 22.523 22.473 21.998 22.998C20.9377 24.0583 19.4995 24.654 18 24.654C16.5005 24.654 15.0623 24.0583 14.002 22.998C12.9417 21.9377 12.346 20.4995 12.346 19C12.346 17.5005 12.9417 16.0623 14.002 15.002V15.002ZM24.908 14.188C25.0381 14.0653 25.1423 13.9177 25.2143 13.754C25.2863 13.5903 25.3248 13.4138 25.3274 13.2349C25.33 13.0561 25.2967 12.8785 25.2295 12.7128C25.1622 12.5471 25.0624 12.3965 24.936 12.27C24.8095 12.1436 24.6589 12.0438 24.4932 11.9765C24.3275 11.9093 24.1499 11.876 23.9711 11.8786C23.7922 11.8812 23.6157 11.9197 23.452 11.9917C23.2883 12.0637 23.1407 12.1679 23.018 12.298C22.7793 12.551 22.6486 12.8871 22.6537 13.2349C22.6588 13.5827 22.7992 13.9149 23.0452 14.1608C23.2911 14.4068 23.6233 14.5472 23.9711 14.5523C24.3189 14.5574 24.655 14.4267 24.908 14.188V14.188Z" fill="#7253A4"/>
</svg>
