<svg width="90" height="90" viewBox="0 0 90 90" fill="none" xmlns="http://www.w3.org/2000/svg">
<rect width="90" height="90" rx="45" fill="#FDD67A"/>
<g clip-path="url(#clip0_13_93)">
<path d="M20.2791 26.7668C20.2791 25.3709 20.8058 24.0322 21.7435 23.0452C22.6812 22.0582 23.953 21.5037 25.2791 21.5037H65.279C66.6051 21.5037 67.8769 22.0582 68.8146 23.0452C69.7523 24.0322 70.279 25.3709 70.279 26.7668V55.7142C70.279 57.1101 69.7523 58.4488 68.8146 59.4358C67.8769 60.4228 66.6051 60.9773 65.279 60.9773H47.7791V66.2405H55.279C55.9421 66.2405 56.578 66.5178 57.0468 67.0113C57.5157 67.5048 57.779 68.1741 57.779 68.8721C57.779 69.57 57.5157 70.2394 57.0468 70.7329C56.578 71.2264 55.9421 71.5037 55.279 71.5037H35.2791C34.616 71.5037 33.9801 71.2264 33.5113 70.7329C33.0424 70.2394 32.7791 69.57 32.7791 68.8721C32.7791 68.1741 33.0424 67.5048 33.5113 67.0113C33.9801 66.5178 34.616 66.2405 35.2791 66.2405H42.7791V60.9773H25.2791C23.953 60.9773 22.6812 60.4228 21.7435 59.4358C20.8058 58.4488 20.2791 57.1101 20.2791 55.7142V26.7668ZM65.279 55.7142V26.7668H25.2791V55.7142H65.279Z" fill="white"/>
</g>
<defs>
<clipPath id="clip0_13_93">
<rect width="50" height="50" fill="white" transform="translate(20 22)"/>
</clipPath>
</defs>
</svg>
