<svg width="90" height="90" viewBox="0 0 90 90" fill="none" xmlns="http://www.w3.org/2000/svg">
<rect width="90" height="90" rx="45" fill="#46BDAA"/>
<path d="M70 45C70 57.0812 58.8063 66.875 45 66.875C42.5239 66.8783 40.0581 66.5568 37.6656 65.9188C35.8406 66.8438 31.65 68.6188 24.6 69.775C23.975 69.875 23.5 69.225 23.7469 68.6437C24.8531 66.0312 25.8531 62.55 26.1531 59.375C22.325 55.5313 20 50.5 20 45C20 32.9188 31.1937 23.125 45 23.125C58.8063 23.125 70 32.9188 70 45ZM35.625 45C35.625 44.1712 35.2958 43.3763 34.7097 42.7903C34.1237 42.2042 33.3288 41.875 32.5 41.875C31.6712 41.875 30.8763 42.2042 30.2903 42.7903C29.7042 43.3763 29.375 44.1712 29.375 45C29.375 45.8288 29.7042 46.6237 30.2903 47.2097C30.8763 47.7958 31.6712 48.125 32.5 48.125C33.3288 48.125 34.1237 47.7958 34.7097 47.2097C35.2958 46.6237 35.625 45.8288 35.625 45V45ZM48.125 45C48.125 44.1712 47.7958 43.3763 47.2097 42.7903C46.6237 42.2042 45.8288 41.875 45 41.875C44.1712 41.875 43.3763 42.2042 42.7903 42.7903C42.2042 43.3763 41.875 44.1712 41.875 45C41.875 45.8288 42.2042 46.6237 42.7903 47.2097C43.3763 47.7958 44.1712 48.125 45 48.125C45.8288 48.125 46.6237 47.7958 47.2097 47.2097C47.7958 46.6237 48.125 45.8288 48.125 45V45ZM57.5 48.125C58.3288 48.125 59.1237 47.7958 59.7097 47.2097C60.2958 46.6237 60.625 45.8288 60.625 45C60.625 44.1712 60.2958 43.3763 59.7097 42.7903C59.1237 42.2042 58.3288 41.875 57.5 41.875C56.6712 41.875 55.8763 42.2042 55.2903 42.7903C54.7042 43.3763 54.375 44.1712 54.375 45C54.375 45.8288 54.7042 46.6237 55.2903 47.2097C55.8763 47.7958 56.6712 48.125 57.5 48.125V48.125Z" fill="white"/>
</svg>
