<svg width="36" height="37" viewBox="0 0 36 37" fill="none" xmlns="http://www.w3.org/2000/svg">
<rect width="36" height="37" fill="#FFEDE9"/>
<path d="M29.643 10.9371C28.808 11.3071 27.911 11.5571 26.968 11.6701C27.941 11.0879 28.669 10.1715 29.016 9.09208C28.1019 9.63507 27.1014 10.0173 26.058 10.2221C25.3564 9.47294 24.4271 8.9764 23.4143 8.80955C22.4016 8.6427 21.3621 8.81487 20.4572 9.29933C19.5524 9.78379 18.8328 10.5534 18.4102 11.4888C17.9875 12.4241 17.8855 13.4728 18.12 14.4721C16.2677 14.3791 14.4556 13.8976 12.8014 13.059C11.1472 12.2203 9.68785 11.0432 8.51801 9.60408C8.11801 10.2941 7.88801 11.0941 7.88801 11.9461C7.88757 12.7131 8.07644 13.4683 8.43789 14.1448C8.79934 14.8213 9.32217 15.3981 9.96001 15.8241C9.22029 15.8005 8.49688 15.6007 7.85001 15.2411V15.3011C7.84994 16.3768 8.22204 17.4195 8.90319 18.2521C9.58434 19.0847 10.5326 19.656 11.587 19.8691C10.9008 20.0548 10.1813 20.0821 9.48301 19.9491C9.78051 20.8747 10.36 21.6841 11.1404 22.264C11.9208 22.8439 12.8629 23.1653 13.835 23.1831C12.1848 24.4785 10.1469 25.1812 8.04901 25.1781C7.67739 25.1782 7.30609 25.1565 6.93701 25.1131C9.06649 26.4823 11.5454 27.2089 14.077 27.2061C22.647 27.2061 27.332 20.1081 27.332 13.9521C27.332 13.7521 27.327 13.5501 27.318 13.3501C28.2293 12.6911 29.0159 11.875 29.641 10.9401L29.643 10.9371V10.9371Z" fill="#7253A4"/>
</svg>
